<?xml version="1.0" ?><!DOCTYPE svg  PUBLIC '-//W3C//DTD SVG 1.1//EN'  'http://www.w3.org/Graphics/SVG/1.1/DTD/svg11.dtd'><svg height="2048px" style="shape-rendering:geometricPrecision; text-rendering:geometricPrecision; image-rendering:optimizeQuality; fill-rule:evenodd; clip-rule:evenodd" viewBox="0 0 2048 2048" width="2048px" xml:space="preserve" xmlns="http://www.w3.org/2000/svg" xmlns:xlink="http://www.w3.org/1999/xlink"><defs><style type="text/css">
   <![CDATA[
    .fil3 {fill:none}
    .fil1 {fill:#6AC1E5}
    .fil2 {fill:#E6E6E5}
    .fil0 {fill:#333333;fill-rule:nonzero}
   ]]>
  </style></defs><g id="Layer_x0020_1"><g id="_510214920"><path class="fil0" d="M477.254 1614.22l-118.125 -1324.85 -1.54843 -17.3752 17.4236 0 1297.99 0 17.426 0 -1.55079 17.3752 -118.251 1324.63 -0.987402 11.0492 -10.6382 2.9504 -531.53 147.37 -8.49922 0 -530.085 -147.152 -10.6406 -2.95394 -0.98504 -11.0457zm-84.8245 -1310.22l115.59 1296.43 515.197 143.02 516.638 -143.242 115.714 -1296.2 -1263.14 0z" id="_510214992"/><path class="fil0" d="M1021.03 1325.03l-182.503 -48.4867 -10.7929 -2.86772 -1.01929 -11.1319 -10.5095 -114.853 -131.153 0 20.2276 226.527 318.52 88.193 318.623 -88.3418 41.2796 -472.996 -358.609 0 -6.43701 -30.5622 382.121 -169.872 11.6599 -135.549 -387.344 0 -1.64882 0 -389.483 0 11.5583 130.246 379.574 0 26.1933 0 6.2504 30.6874 -26.1933 11.2252 -369.006 157.935 11.9398 136.138 350.816 0 198.437 0 17.4095 0 -1.47165 17.3126 -18.0366 212.129 -0.94252 11.074 -10.7457 2.98819 -180.401 50.1437 -8.3126 0.0625985zm-163.583 -76.493l167.574 44.5205 165.476 -45.9957 15.6236 -183.741 -181.028 0 -365.471 0 -14.6539 0 -1.28386 -14.6256 -14.2299 -162.248 -1.0063 -11.4839 10.6937 -4.57796 334.229 -143.049 -342.428 0 -14.5772 0 -1.29803 -14.6256 -14.3988 -162.247 -1.54134 -17.3752 17.4165 0 406.901 0 1.64882 0 404.771 0 17.426 0 -1.48819 17.3126 -13.9559 162.247 -0.807875 9.38505 -8.69292 3.86457 -322.067 143.175 300.878 0 17.4532 0 -1.51536 17.3752 -43.7587 501.397 -0.962599 11.0256 -10.7256 2.97402 -333.596 92.4934 -8.49922 0 -333.41 -92.3162 -10.6382 -2.94567 -0.987402 -11.0539 -22.7669 -254.956 -1.55079 -17.3752 17.426 0 163.123 0 14.5429 0 1.33228 14.563 10.8236 118.284z" id="_510214488"/></g><path class="fil1" d="M1025.09 533.091l404.771 0 17.426 0 -1.48819 17.3126 -13.9559 162.247 -0.807875 9.38505 -8.69292 3.86457 -322.067 143.175 300.878 0 17.4532 0 -1.51536 17.3752 -43.7587 501.397 -0.962599 11.0256 -10.7256 2.97402 -333.596 92.4934 -8.49922 0 -333.41 -92.3162 -10.6382 -2.94567 -0.987402 -11.0539 -22.7669 -254.956 -1.55079 -17.3752 17.426 0 163.123 0 14.5429 0 1.33228 14.563 10.8236 118.284 167.574 44.5205 165.476 -45.9957 15.6236 -183.741 -181.028 0 -365.471 0 -14.6539 0 -1.28386 -14.6256 -14.2299 -162.248 -1.0063 -11.4839 10.6937 -4.57796 334.229 -143.049 -342.428 0 -14.5772 0 -1.29803 -14.6256 -14.3988 -162.247 -1.54134 -17.3752 17.4165 0 406.901 0 1.64882 0zm-632.66 -229.09l115.59 1296.43 515.197 143.02 516.638 -143.242 115.714 -1296.2 -1263.14 0z"/><polygon class="fil2" points="1412.43,565.092 1025.09,565.092 1023.44,565.092 633.958,565.092 645.517,695.338 1025.09,695.338 1051.28,695.338 1057.53,726.025 1031.34,737.251 662.334,895.185 674.274,1031.32 1025.09,1031.32 1223.53,1031.32 1240.94,1031.32 1239.47,1048.64 1221.43,1260.76 1220.49,1271.84 1209.74,1274.83 1029.34,1324.97 1021.03,1325.03 838.524,1276.55 827.731,1273.68 826.712,1262.55 816.203,1147.69 685.049,1147.69 705.277,1374.22 1023.8,1462.41 1342.42,1374.07 1383.7,901.075 1025.09,901.075 1018.65,870.513 1400.77,700.641 "/></g><rect class="fil3" height="2048" width="2048"/></svg>