<?xml version="1.0" ?><!DOCTYPE svg  PUBLIC '-//W3C//DTD SVG 1.1//EN'  'http://www.w3.org/Graphics/SVG/1.1/DTD/svg11.dtd'><svg enable-background="new 0 0 100 100" height="100px" id="Layer_1" version="1.1" viewBox="0 0 100 100" width="100px" xml:space="preserve" xmlns="http://www.w3.org/2000/svg" xmlns:xlink="http://www.w3.org/1999/xlink"><g><path d="M51.055,4.062c-25.376,0-46.021,20.645-46.021,46.021c0,25.377,20.646,46.022,46.021,46.022   c25.377,0,46.023-20.646,46.023-46.022C97.078,24.707,76.432,4.062,51.055,4.062z M51.055,94.105   c-24.273,0-44.021-19.749-44.021-44.022c0-24.273,19.748-44.021,44.021-44.021c24.274,0,44.023,19.748,44.023,44.021   C95.078,74.357,75.329,94.105,51.055,94.105z" fill="#F55A1E"/><path d="M72.508,27.823H30.142c-0.281,0-0.549,0.118-0.738,0.326c-0.189,0.207-0.283,0.485-0.258,0.765   l2.339,25.822c0.047,0.515,0.505,0.91,1.022,0.91h27.98l-0.827,8.938l-8.349,2.372l-8.344-2.371l-0.66-7.249   c-0.047-0.515-0.479-0.909-0.996-0.909h-8.55c-0.281,0-0.549,0.118-0.738,0.326s-0.283,0.485-0.258,0.765l1.324,14.526   c0.038,0.412,0.325,0.758,0.723,0.871l17.226,4.896c0.09,0.025,0.182,0.038,0.273,0.038s0.184-0.013,0.273-0.038l17.224-4.892   c0.397-0.113,0.685-0.458,0.723-0.87l2.389-25.827c0.025-0.28-0.067-0.558-0.257-0.766c-0.189-0.208-0.458-0.326-0.739-0.326   H41.173l-0.615-6.79h31.165c0.517,0,0.948-0.394,0.996-0.908l0.785-8.517c0.025-0.28-0.067-0.558-0.257-0.766   C73.058,27.941,72.789,27.823,72.508,27.823z M70.811,36.34H39.463c-0.281,0-0.549,0.118-0.738,0.326s-0.283,0.485-0.258,0.765   l0.797,8.79c0.047,0.515,0.479,0.91,0.996,0.91h29.567l-2.225,24.052l-16.291,4.627l-16.292-4.63l-1.162-12.752h6.541l0.64,7.023   c0.038,0.412,0.325,0.758,0.723,0.871l9.277,2.636c0.18,0.051,0.367,0.051,0.547,0l9.281-2.637c0.397-0.113,0.685-0.458,0.723-0.87   l0.991-10.713c0.025-0.28-0.067-0.558-0.257-0.766c-0.189-0.208-0.458-0.326-0.739-0.326h-28.19l-2.157-23.822h40.175L70.811,36.34   z" fill="#F55A1E"/></g></svg>